<svg xmlns="http://www.w3.org/2000/svg" viewBox="0 0 1224.17 229.66"><defs><style>.a{fill:#29abe2;}</style></defs><title>aaa2</title><path class="a" d="M.5,100.5c32.3-90.11,277.08-79.1,355-75,321,16.89,394.08,110.73,553,69C968.43,78.76,1168.09,10.27,1193.66-16c1.55-1.6,9.86-10.63,16.22-8.47,7.51,2.56,8.19,19.34,8.62,30a104.38,104.38,0,0,1-6,40,117.8,117.8,0,0,1-12,23c-82.68,119.09-345,125-345,125-239.83,5.4-252.37-67-517-71C82.34,118.64,2.39,185.12.5,200.5c-.07.54-.45,4.39-.89,4.38C-2.27,204.85-11.55,134.13.5,100.5Z" transform="translate(5.57 24.78)"/></svg>